<?xml version="1.0" encoding="utf-8"?>
<!-- Generator: Adobe Illustrator 23.0.5, SVG Export Plug-In . SVG Version: 6.00 Build 0)  -->
<svg version="1.1" id="Layer_1" xmlns="http://www.w3.org/2000/svg" xmlns:xlink="http://www.w3.org/1999/xlink" x="0px" y="0px"
	 viewBox="0 0 930.09 482.79" style="enable-background:new 0 0 930.09 482.79;" xml:space="preserve">
<style type="text/css">
	.st0{display:none;fill:#299AD6;}
	.st1{fill:none;stroke:#000000;stroke-width:0.7536;stroke-miterlimit:10;}
	.st2{fill:#2189C7;}
	.st3{fill:#84D0D0;}
	.st4{fill:#FFFFFF;stroke:#84D0D0;stroke-width:1.8582;stroke-miterlimit:10;}
	.st5{fill:#C1E5E1;}
	.st6{fill:none;stroke:#C1E5E1;stroke-miterlimit:10;}
</style>
<rect class="st0" width="930.09" height="482.79"/>
<rect x="88.09" y="125.12" class="st3" width="625.42" height="48.9"/>
<rect x="88.09" y="194.54" class="st3" width="770.49" height="48.9"/>
<rect x="88.09" y="263.96" class="st3" width="497.15" height="48.9"/>
<rect x="88.09" y="333.37" class="st3" width="708.72" height="48.9"/>
<path class="st3" d="M854.14,451.69H92.54c-2.45,0-4.44-1.99-4.44-4.44v-3.34c0-2.45,1.99-4.44,4.44-4.44h761.61
	c2.45,0,4.44,1.99,4.44,4.44v3.34C858.58,449.71,856.6,451.69,854.14,451.69z"/>
<path class="st4" d="M811.94,451.69H134.74c-2.45,0-4.44-1.99-4.44-4.44v-3.34c0-2.45,1.99-4.44,4.44-4.44h677.19
	c2.45,0,4.44,1.99,4.44,4.44v3.34C816.38,449.71,814.39,451.69,811.94,451.69z"/>
<path class="st4" d="M473.34,466.61L473.34,466.61c-3.35,0-6.06-2.71-6.06-6.06v-29.94c0-3.35,2.71-6.06,6.06-6.06l0,0
	c3.35,0,6.06,2.71,6.06,6.06v29.94C479.4,463.9,476.69,466.61,473.34,466.61z"/>
<path class="st4" d="M473.34,464.53L473.34,464.53c-3.35,0-6.06-2.71-6.06-6.06v-29.94c0-3.35,2.71-6.06,6.06-6.06l0,0
	c3.35,0,6.06,2.71,6.06,6.06v29.94C479.4,461.81,476.69,464.53,473.34,464.53z"/>
</svg>
