<?xml version="1.0" encoding="utf-8"?>
<!-- Generator: Adobe Illustrator 23.0.5, SVG Export Plug-In . SVG Version: 6.00 Build 0)  -->
<svg version="1.1" id="Layer_1" xmlns="http://www.w3.org/2000/svg" xmlns:xlink="http://www.w3.org/1999/xlink" x="0px" y="0px"
	 viewBox="0 0 446 420" style="enable-background:new 0 0 446 420;" xml:space="preserve">
<style type="text/css">
	.st0{fill:none;stroke:#91AFD0;stroke-miterlimit:10;}
	.st1{fill:#2189C7;}
	.st2{fill:none;stroke:#000000;stroke-width:0.7536;stroke-miterlimit:10;}
	.st3{fill:#D7D7D7;}
	.st4{fill:#91AFD0;}
	.st5{fill:#E58E95;}
	.st6{fill:#E03857;}
	.st7{fill:#FFFFFF;stroke:#2189C7;stroke-miterlimit:10;}
</style>
<rect x="70.68" y="189.57" class="st3" width="292.09" height="25.64"/>
<rect x="70.68" y="225.97" class="st1" width="292.09" height="25.64"/>
<rect x="70.68" y="262.36" class="st4" width="292.09" height="25.64"/>
<rect x="70.68" y="298.76" class="st5" width="292.09" height="25.64"/>
<path class="st1" d="M359.56,360.79H73.89c-1.77,0-3.2-1.43-3.2-3.2l0,0c0-1.77,1.43-3.2,3.2-3.2h285.68c1.77,0,3.2,1.43,3.2,3.2
	l0,0C362.77,359.36,361.33,360.79,359.56,360.79z"/>
<path class="st6" d="M344.98,360.79H90.94c-1.67,0-3.02-1.35-3.02-3.02v-0.36c0-1.67,1.35-3.02,3.02-3.02h254.04
	c1.67,0,3.02,1.35,3.02,3.02v0.36C348,359.44,346.65,360.79,344.98,360.79z"/>
<path class="st7" d="M87.91,365.34L87.91,365.34c-1.48,0-2.68-1.2-2.68-2.68v-10.14c0-1.48,1.2-2.68,2.68-2.68l0,0
	c1.48,0,2.68,1.2,2.68,2.68v10.14C90.6,364.14,89.4,365.34,87.91,365.34z"/>
<path class="st7" d="M348,365.34L348,365.34c-1.48,0-2.68-1.2-2.68-2.68v-10.14c0-1.48,1.2-2.68,2.68-2.68l0,0
	c1.48,0,2.68,1.2,2.68,2.68v10.14C350.68,364.14,349.48,365.34,348,365.34z"/>
</svg>
