<?xml version="1.0" encoding="utf-8"?>
<!-- Generator: Adobe Illustrator 23.0.5, SVG Export Plug-In . SVG Version: 6.00 Build 0)  -->
<svg version="1.1" id="Layer_1" xmlns="http://www.w3.org/2000/svg" xmlns:xlink="http://www.w3.org/1999/xlink" x="0px" y="0px"
	 viewBox="0 0 930.09 482.79" style="enable-background:new 0 0 930.09 482.79;" xml:space="preserve">
<style type="text/css">
	.st0{display:none;fill:#299AD6;}
	.st1{fill:none;stroke:#000000;stroke-width:0.7536;stroke-miterlimit:10;}
	.st2{fill:#2189C7;}
	.st3{fill:#84D0D0;}
	.st4{fill:#FFFFFF;stroke:#84D0D0;stroke-width:2;stroke-miterlimit:10;}
	.st5{fill:#C1E5E1;}
	.st6{fill:none;stroke:#C1E5E1;stroke-miterlimit:10;}
</style>
<rect class="st0" width="930.09" height="482.79"/>
<rect x="20.96" y="140.04" class="st3" width="724.53" height="48.9"/>
<rect x="20.96" y="209.46" class="st3" width="892.6" height="48.9"/>
<rect x="20.96" y="278.88" class="st3" width="575.94" height="48.9"/>
<rect x="20.96" y="348.3" class="st3" width="821.04" height="48.9"/>
<path class="st3" d="M908.77,466.61H25.74c-2.64,0-4.78-2.14-4.78-4.78v-2.67c0-2.64,2.14-4.78,4.78-4.78h883.04
	c2.64,0,4.78,2.14,4.78,4.78v2.67C913.55,464.47,911.41,466.61,908.77,466.61z"/>
<path class="st4" d="M863.65,466.61H78.4c-2.64,0-4.78-2.14-4.78-4.78v-2.67c0-2.64,2.14-4.78,4.78-4.78h785.25
	c2.64,0,4.78,2.14,4.78,4.78v2.67C868.43,464.47,866.29,466.61,863.65,466.61z"/>
<path class="st4" d="M73.62,481.54L73.62,481.54c-3.88,0-7.02-3.14-7.02-7.02v-28.02c0-3.88,3.14-7.02,7.02-7.02h0
	c3.88,0,7.02,3.14,7.02,7.02v28.02C80.65,478.39,77.5,481.54,73.62,481.54z"/>
<path class="st4" d="M864.4,479.45L864.4,479.45c-3.88,0-7.02-3.14-7.02-7.02V444.4c0-3.88,3.14-7.02,7.02-7.02l0,0
	c3.88,0,7.02,3.14,7.02,7.02v28.02C871.43,476.3,868.28,479.45,864.4,479.45z"/>
</svg>
