<?xml version="1.0" encoding="utf-8"?>
<!-- Generator: Adobe Illustrator 23.0.5, SVG Export Plug-In . SVG Version: 6.00 Build 0)  -->
<svg version="1.1" id="Layer_1" xmlns="http://www.w3.org/2000/svg" xmlns:xlink="http://www.w3.org/1999/xlink" x="0px" y="0px"
	 viewBox="0 0 930.09 482.79" style="enable-background:new 0 0 930.09 482.79;" xml:space="preserve">
<style type="text/css">
	.st0{fill:none;stroke:#91AFD0;stroke-miterlimit:10;}
	.st1{fill:#2189C7;}
	.st2{fill:none;stroke:#000000;stroke-width:0.7536;stroke-miterlimit:10;}
	.st3{fill:#D7D7D7;}
	.st4{fill:#91AFD0;}
	.st5{fill:#E58E95;}
	.st6{fill:#E03857;}
	.st7{fill:#FFFFFF;stroke:#2189C7;stroke-miterlimit:10;}
</style>
<polyline class="st0" points="791.53,273.93 778.46,343.31 833.94,340.22 "/>
<polyline class="st0" points="805.64,398.44 778.46,343.31 721.43,390.65 "/>
<polyline class="st0" points="609.13,199.66 555.32,265.83 468.14,275.24 "/>
<circle class="st1" cx="688.81" cy="278.08" r="9.82"/>
<circle class="st1" cx="642.81" cy="350.04" r="9.82"/>
<circle class="st1" cx="721.43" cy="444.41" r="9.82"/>
<circle class="st1" cx="768.64" cy="445.48" r="9.82"/>
<circle class="st1" cx="301" cy="298.76" r="9.82"/>
<circle class="st1" cx="805.64" cy="398.44" r="9.82"/>
<circle class="st1" cx="383.39" cy="366.37" r="9.82"/>
<circle class="st1" cx="440.97" cy="412.55" r="9.82"/>
<circle class="st1" cx="251.25" cy="188.39" r="9.82"/>
<circle class="st1" cx="791.53" cy="273.93" r="9.82"/>
<circle class="st1" cx="721.43" cy="390.65" r="9.82"/>
<circle class="st1" cx="833.94" cy="340.22" r="9.82"/>
<circle class="st1" cx="778.46" cy="343.31" r="9.82"/>
<polyline class="st0" points="383.39,366.37 314.3,380.91 338.45,430.97 "/>
<line class="st0" x1="273.83" y1="427.17" x2="314.3" y2="380.91"/>
<circle class="st1" cx="273.83" cy="427.17" r="9.82"/>
<circle class="st1" cx="338.45" cy="430.97" r="9.82"/>
<circle class="st1" cx="314.3" cy="380.91" r="9.82"/>
<circle class="st1" cx="61.95" cy="256.68" r="9.82"/>
<g>
	<polyline class="st0" points="47.28,35.89 34.21,105.27 89.7,102.18 	"/>
	<circle class="st1" cx="47.28" cy="35.89" r="9.82"/>
	<circle class="st1" cx="89.7" cy="102.18" r="9.82"/>
	<circle class="st1" cx="34.21" cy="105.27" r="9.82"/>
</g>
<circle class="st1" cx="609.13" cy="199.66" r="9.82"/>
<circle class="st1" cx="468.14" cy="275.24" r="9.82"/>
<circle class="st1" cx="555.32" cy="265.83" r="9.82"/>
<polyline class="st0" points="529.76,349.12 586.79,412.55 510.12,412.55 "/>
<circle class="st1" cx="529.76" cy="349.12" r="9.82"/>
<circle class="st1" cx="510.12" cy="412.55" r="9.82"/>
<circle class="st1" cx="586.79" cy="412.55" r="9.82"/>
<g>
	<g>
		<g>
			<polyline class="st0" points="588.83,147.95 604.01,79 548.46,80.4 			"/>
		</g>
		<g>
			<polyline class="st0" points="578.52,23.07 604.01,79 662.45,33.42 			"/>
		</g>
		<g>
			<polyline class="st0" points="807.08,203.84 752.01,138.7 828.64,141.04 			"/>
		</g>
	</g>
</g>
<g>
	<circle class="st1" cx="702.81" cy="101.65" r="9.82"/>
	<circle class="st1" cx="578.52" cy="23.07" r="9.82"/>
	<circle class="st1" cx="664.43" cy="145.86" r="9.82"/>
	<circle class="st1" cx="588.83" cy="147.95" r="9.82"/>
	<circle class="st1" cx="662.45" cy="33.42" r="9.82"/>
	<circle class="st1" cx="548.46" cy="80.4" r="9.82"/>
	<circle class="st1" cx="604.01" cy="79" r="9.82"/>
	<circle class="st1" cx="807.08" cy="203.84" r="9.82"/>
	<circle class="st1" cx="828.64" cy="141.04" r="9.82"/>
	<circle class="st1" cx="752.01" cy="138.7" r="9.82"/>
</g>
<g>
	<g>
		<g>
			<polyline class="st0" points="229.17,369.23 160.75,386.67 186.98,435.66 			"/>
		</g>
		<g>
			<polyline class="st0" points="122.26,434.59 160.75,386.67 93.76,354.96 			"/>
		</g>
		<g>
			<polyline class="st0" points="180.96,149.16 147.54,227.63 115.18,158.13 			"/>
		</g>
	</g>
</g>
<g>
	<circle class="st1" cx="136.57" cy="288.23" r="9.82"/>
	<circle class="st1" cx="122.26" cy="434.59" r="9.82"/>
	<circle class="st1" cx="193.31" cy="302.64" r="9.82"/>
	<circle class="st1" cx="229.17" cy="369.23" r="9.82"/>
	<circle class="st1" cx="93.76" cy="354.96" r="9.82"/>
	<circle class="st1" cx="186.98" cy="435.66" r="9.82"/>
	<circle class="st1" cx="160.75" cy="386.67" r="9.82"/>
	<circle class="st1" cx="180.96" cy="149.16" r="9.82"/>
	<circle class="st1" cx="115.18" cy="158.13" r="9.82"/>
	<circle class="st1" cx="147.54" cy="227.63" r="9.82"/>
</g>
<g>
	<g>
		<g>
			<polyline class="st0" points="337.7,100.41 406.62,85.06 381.89,35.29 			"/>
		</g>
		<g>
			<polyline class="st0" points="446.55,38.34 406.62,85.06 472.61,118.8 			"/>
		</g>
		<g>
			<polyline class="st0" points="379.18,321.85 414.98,244.43 445.21,314.88 			"/>
		</g>
	</g>
</g>
<g>
	<circle class="st1" cx="427.79" cy="184.19" r="9.82"/>
	<circle class="st1" cx="446.55" cy="38.34" r="9.82"/>
	<circle class="st1" cx="371.52" cy="168.06" r="9.82"/>
	<circle class="st1" cx="337.7" cy="100.41" r="9.82"/>
	<circle class="st1" cx="472.61" cy="118.8" r="9.82"/>
	<circle class="st1" cx="381.89" cy="35.29" r="9.82"/>
	<circle class="st1" cx="406.62" cy="85.06" r="9.82"/>
	<circle class="st1" cx="379.18" cy="321.85" r="9.82"/>
	<circle class="st1" cx="445.21" cy="314.88" r="9.82"/>
	<circle class="st1" cx="414.98" cy="244.43" r="9.82"/>
</g>
</svg>
