<?xml version="1.0" encoding="utf-8"?>
<!-- Generator: Adobe Illustrator 23.0.5, SVG Export Plug-In . SVG Version: 6.00 Build 0)  -->
<svg version="1.1" id="Layer_1" xmlns="http://www.w3.org/2000/svg" xmlns:xlink="http://www.w3.org/1999/xlink" x="0px" y="0px"
	 viewBox="0 0 930.09 482.79" style="enable-background:new 0 0 930.09 482.79;" xml:space="preserve">
<style type="text/css">
	.st0{display:none;fill:#299AD6;}
	.st1{fill:none;stroke:#000000;stroke-width:0.7536;stroke-miterlimit:10;}
	.st2{fill:#2189C7;}
	.st3{fill:#D7D7D7;}
	.st4{fill:#91AFD0;}
	.st5{fill:#E58E95;}
	.st6{fill:#E03857;}
	.st7{fill:#FFFFFF;stroke:#2189C7;stroke-miterlimit:10;}
	.st8{fill:#C1E5E1;}
	.st9{fill:none;stroke:#C1E5E1;stroke-miterlimit:10;}
</style>
<rect class="st0" width="930.09" height="482.79"/>
<circle class="st8" cx="58.82" cy="419.84" r="19.51"/>
<circle class="st8" cx="740.89" cy="234.73" r="19.51"/>
<circle class="st8" cx="168.13" cy="165.21" r="19.51"/>
<circle class="st8" cx="637.79" cy="425.47" r="19.51"/>
<circle class="st8" cx="231.89" cy="405.95" r="19.51"/>
<circle class="st8" cx="335.96" cy="156.17" r="19.51"/>
<circle class="st8" cx="129.32" cy="287.88" r="19.51"/>
<circle class="st8" cx="237.52" cy="265.74" r="19.51"/>
<circle class="st8" cx="514.57" cy="422.73" r="19.51"/>
<circle class="st8" cx="500.19" cy="174.1" r="19.51"/>
<circle class="st8" cx="348.31" cy="398.06" r="19.51"/>
<circle class="st8" cx="577.1" cy="310.29" r="19.51"/>
<circle class="st8" cx="466.65" cy="310.36" r="19.51"/>
<circle class="st8" cx="858.85" cy="439.36" r="19.51"/>
<circle class="st8" cx="879.12" cy="308.97" r="19.51"/>
<circle class="st8" cx="728.37" cy="331.14" r="19.51"/>
<g>
	<g>
		<g>
			<polyline class="st9" points="231.89,405.95 237.52,265.74 129.32,287.88 			"/>
		</g>
		<g>
			<polyline class="st9" points="168.13,165.21 237.52,265.74 335.96,156.17 			"/>
		</g>
		<g>
			<polyline class="st9" points="858.85,439.36 728.37,331.14 879.12,308.97 			"/>
		</g>
		<g>
			<polyline class="st9" points="500.19,174.1 466.65,310.36 577.1,310.29 			"/>
		</g>
		<g>
			<polyline class="st9" points="514.57,422.73 466.65,310.36 348.31,398.06 			"/>
		</g>
		<g>
			<line class="st9" x1="237.52" y1="265.74" x2="466.65" y2="310.36"/>
		</g>
	</g>
</g>
</svg>
