<?xml version="1.0" encoding="utf-8"?>
<!-- Generator: Adobe Illustrator 23.0.5, SVG Export Plug-In . SVG Version: 6.00 Build 0)  -->
<svg version="1.1" id="Layer_1" xmlns="http://www.w3.org/2000/svg" xmlns:xlink="http://www.w3.org/1999/xlink" x="0px" y="0px"
	 viewBox="0 0 446 420" style="enable-background:new 0 0 446 420;" xml:space="preserve">
<style type="text/css">
	.st0{fill:none;stroke:#91AFD0;stroke-miterlimit:10;}
	.st1{fill:#2189C7;}
	.st2{fill:none;stroke:#000000;stroke-width:0.7536;stroke-miterlimit:10;}
	.st3{fill:#D7D7D7;}
	.st4{fill:#91AFD0;}
	.st5{fill:#E58E95;}
	.st6{fill:#E03857;}
	.st7{fill:#FFFFFF;stroke:#2189C7;stroke-miterlimit:10;}
</style>
<g>
	<g>
		<g>
			<polyline class="st0" points="307.44,273.93 294.37,343.31 349.86,340.22 			"/>
		</g>
		<g>
			<polyline class="st0" points="321.55,398.44 294.37,343.31 237.34,390.65 			"/>
		</g>
		<g>
			<polyline class="st0" points="87.59,224.72 144.62,288.14 67.96,288.14 			"/>
		</g>
	</g>
</g>
<g>
	<circle class="st1" cx="194.93" cy="323.68" r="9.82"/>
	<circle class="st1" cx="321.55" cy="398.44" r="9.82"/>
	<circle class="st1" cx="231.94" cy="278.32" r="9.82"/>
	<circle class="st1" cx="307.44" cy="273.93" r="9.82"/>
	<circle class="st1" cx="237.34" cy="390.65" r="9.82"/>
	<circle class="st1" cx="349.86" cy="340.22" r="9.82"/>
	<circle class="st1" cx="294.37" cy="343.31" r="9.82"/>
	<circle class="st1" cx="87.59" cy="224.72" r="9.82"/>
	<circle class="st1" cx="67.96" cy="288.14" r="9.82"/>
	<circle class="st1" cx="144.62" cy="288.14" r="9.82"/>
</g>
<g>
	<g>
		<g>
			<polyline class="st0" points="104.75,147.95 119.93,79 64.37,80.4 			"/>
		</g>
		<g>
			<polyline class="st0" points="94.43,23.07 119.93,79 178.37,33.42 			"/>
		</g>
		<g>
			<polyline class="st0" points="322.99,203.84 267.93,138.7 344.55,141.04 			"/>
		</g>
	</g>
</g>
<g>
	<circle class="st1" cx="218.72" cy="101.65" r="9.82"/>
	<circle class="st1" cx="94.43" cy="23.07" r="9.82"/>
	<circle class="st1" cx="180.35" cy="145.86" r="9.82"/>
	<circle class="st1" cx="104.75" cy="147.95" r="9.82"/>
	<circle class="st1" cx="178.37" cy="33.42" r="9.82"/>
	<circle class="st1" cx="64.37" cy="80.4" r="9.82"/>
	<circle class="st1" cx="119.93" cy="79" r="9.82"/>
	<circle class="st1" cx="322.99" cy="203.84" r="9.82"/>
	<circle class="st1" cx="344.55" cy="141.04" r="9.82"/>
	<circle class="st1" cx="267.93" cy="138.7" r="9.82"/>
</g>
</svg>
